<svg width="48" height="48" viewBox="0 0 48 48" fill="none" xmlns="http://www.w3.org/2000/svg">
<rect width="48" height="48" rx="20" fill="#008AA7"/>
<path fill-rule="evenodd" clip-rule="evenodd" d="M27.9167 33.6005H20.0735C16.6847 33.6005 14.3999 31.4203 14.3999 28.1669V19.8437C14.3999 16.5893 16.6847 14.4005 20.0735 14.4005H27.9167C31.3151 14.4005 33.5999 16.5893 33.5999 19.8437V28.1669C33.5999 31.4203 31.3151 33.6005 27.9167 33.6005ZM26.1791 23.2805H20.0831C19.6799 23.2805 19.3631 23.6069 19.3631 24.0005C19.3631 24.4037 19.6799 24.7205 20.0831 24.7205H26.1791L23.7983 27.0917C23.6639 27.2261 23.5871 27.4181 23.5871 27.6005C23.5871 27.7819 23.6639 27.9653 23.7983 28.1093C24.0767 28.3877 24.5375 28.3877 24.8159 28.1093L28.4351 24.5093C28.7039 24.2405 28.7039 23.7605 28.4351 23.4917L24.8159 19.8917C24.5375 19.6133 24.0767 19.6133 23.7983 19.8917C23.5199 20.1797 23.5199 20.6309 23.7983 20.9189L26.1791 23.2805Z" fill="white"/>
</svg>
