<svg width="20" height="20" viewBox="0 0 20 20" fill="none" xmlns="http://www.w3.org/2000/svg">
<path d="M10 20C4.47059 20 0 15.5294 0 10C0 4.47059 4.47059 0 10 0C15.5294 0 20 4.47059 20 10C20 15.5294 15.5294 20 10 20ZM10 1.17647C5.11765 1.17647 1.17647 5.11765 1.17647 10C1.17647 14.8824 5.11765 18.8235 10 18.8235C14.8824 18.8235 18.8235 14.8824 18.8235 10C18.8235 5.11765 14.8824 1.17647 10 1.17647Z" fill="#008AA7"/>
<path d="M6.94135 6.82347C7.11782 6.35288 7.29429 5.99994 7.64723 5.70583C7.94135 5.41171 8.29429 5.17641 8.76488 4.99994C9.23547 4.82347 9.70606 4.76465 10.2355 4.76465C10.6472 4.76465 11.059 4.82347 11.4119 4.94112C11.7649 5.05877 12.1178 5.23524 12.4119 5.47053C12.7061 5.70582 12.9414 5.99994 13.059 6.35288C13.2355 6.70582 13.2943 7.11759 13.2943 7.52935C13.2943 8.11759 13.1766 8.58818 12.9414 8.99994C12.7061 9.41171 12.3531 9.76465 12.0002 10.1764L11.2355 10.9411C11.059 11.1176 10.8825 11.2941 10.8237 11.4705C10.7061 11.647 10.6472 11.8823 10.6472 12.1176C10.5884 12.3529 10.5884 12.5294 10.5884 12.9999H9.64723C9.64723 12.5294 9.64723 12.3529 9.70606 11.9999C9.76488 11.7058 9.88253 11.4117 10.0002 11.1176C10.1178 10.8823 10.2943 10.647 10.5296 10.4117C10.7649 10.1764 11.059 9.94112 11.3531 9.58818C11.6472 9.29406 11.8825 8.99994 12.059 8.70582C12.2355 8.41171 12.3531 7.99994 12.3531 7.647C12.3531 7.35288 12.2943 7.05877 12.1766 6.82347C12.059 6.58818 11.8825 6.35288 11.7061 6.17641C11.5296 5.99994 11.2943 5.88229 11.0002 5.76465C10.7061 5.647 10.4708 5.58818 10.1766 5.58818C9.76488 5.58818 9.41194 5.647 9.11782 5.82347C8.8237 5.94112 8.52959 6.17641 8.35311 6.41171C8.17664 6.647 8.00017 6.94112 7.88253 7.29406C7.76488 7.647 7.64723 7.82347 7.64723 8.23524H6.70605C6.70605 7.70582 6.76488 7.29406 6.94135 6.82347ZM10.5884 14.1176V15.2941H9.41194V14.1176H10.5884Z" fill="#008AA7"/>
</svg>
