<svg width="13" height="12" viewBox="0 0 13 12" fill="none" xmlns="http://www.w3.org/2000/svg">
<path d="M0.949903 0.251763C1.02953 0.171957 1.12413 0.10864 1.22828 0.0654386C1.33242 0.022237 1.44407 0 1.55683 0C1.66958 0 1.78123 0.022237 1.88537 0.0654386C1.98952 0.10864 2.08412 0.171957 2.16375 0.251763L6.70023 4.78849L11.2367 0.251763C11.3164 0.172086 11.411 0.108884 11.5152 0.065763C11.6193 0.0226426 11.7309 0.000448674 11.8436 0.000448674C11.9563 0.000448674 12.068 0.0226426 12.1721 0.065763C12.2762 0.108884 12.3709 0.172086 12.4506 0.251763C12.5303 0.331439 12.5935 0.426028 12.6366 0.53013C12.6797 0.634232 12.7019 0.745808 12.7019 0.858488C12.7019 0.971167 12.6797 1.08274 12.6366 1.18685C12.5935 1.29095 12.5303 1.38554 12.4506 1.46521L7.91236 6.00023L12.4506 10.5352C12.5303 10.6149 12.5935 10.7095 12.6366 10.8136C12.6797 10.9177 12.7019 11.0293 12.7019 11.142C12.7019 11.2546 12.6797 11.3662 12.6366 11.4703C12.5935 11.5744 12.5303 11.669 12.4506 11.7487C12.3709 11.8284 12.2762 11.8916 12.1721 11.9347C12.068 11.9778 11.9563 12 11.8436 12C11.7309 12 11.6193 11.9778 11.5152 11.9347C11.411 11.8916 11.3164 11.8284 11.2367 11.7487L6.70023 7.21196L2.16375 11.7487C2.08404 11.8284 1.98942 11.8916 1.88529 11.9347C1.78115 11.9778 1.66954 12 1.55683 12C1.44411 12 1.3325 11.9778 1.22836 11.9347C1.12423 11.8916 1.02961 11.8284 0.949903 11.7487C0.870201 11.669 0.806978 11.5744 0.763843 11.4703C0.720709 11.3662 0.698508 11.2546 0.698508 11.142C0.698508 11.0293 0.720709 10.9177 0.763843 10.8136C0.806978 10.7095 0.870201 10.6149 0.949903 10.5352L5.4881 6.00023L0.949903 1.46521C0.870072 1.38561 0.806735 1.29104 0.763519 1.18693C0.720303 1.08282 0.698059 0.971207 0.698059 0.858488C0.698059 0.745768 0.720303 0.634156 0.763519 0.530044C0.806735 0.425933 0.870072 0.331366 0.949903 0.251763Z" fill="black"/>
</svg>
