<svg width="41" height="40" viewBox="0 0 41 40" fill="none" xmlns="http://www.w3.org/2000/svg">
<circle cx="20.115" cy="20" r="20" fill="#E0F7FE"/>
<g clip-path="url(#clip0_1_593)">
<path d="M29.115 12.6445C29.5128 12.6445 29.8943 12.8026 30.1756 13.0839C30.457 13.3652 30.615 13.7467 30.615 14.1445V26.1445C30.615 26.5424 30.457 26.9239 30.1756 27.2052C29.8943 27.4865 29.5128 27.6445 29.115 27.6445H11.115C10.7172 27.6445 10.3356 27.4865 10.0543 27.2052C9.77303 26.9239 9.61499 26.5424 9.61499 26.1445V14.1445C9.61499 13.7467 9.77303 13.3652 10.0543 13.0839C10.3356 12.8026 10.7172 12.6445 11.115 12.6445H29.115ZM11.115 11.1445C10.3193 11.1445 9.55628 11.4606 8.99367 12.0232C8.43106 12.5858 8.11499 13.3489 8.11499 14.1445V26.1445C8.11499 26.9402 8.43106 27.7032 8.99367 28.2659C9.55628 28.8285 10.3193 29.1445 11.115 29.1445H29.115C29.9106 29.1445 30.6737 28.8285 31.2363 28.2659C31.7989 27.7032 32.115 26.9402 32.115 26.1445V14.1445C32.115 13.3489 31.7989 12.5858 31.2363 12.0232C30.6737 11.4606 29.9106 11.1445 29.115 11.1445H11.115Z" fill="#111111"/>
<path d="M11.115 16.3945C11.115 16.1956 11.194 16.0049 11.3347 15.8642C11.4753 15.7235 11.6661 15.6445 11.865 15.6445H14.865C15.0639 15.6445 15.2547 15.7235 15.3953 15.8642C15.536 16.0049 15.615 16.1956 15.615 16.3945V17.8945C15.615 18.0934 15.536 18.2842 15.3953 18.4249C15.2547 18.5655 15.0639 18.6445 14.865 18.6445H11.865C11.6661 18.6445 11.4753 18.5655 11.3347 18.4249C11.194 18.2842 11.115 18.0934 11.115 17.8945V16.3945ZM11.115 20.8945C11.115 20.6956 11.194 20.5049 11.3347 20.3642C11.4753 20.2235 11.6661 20.1445 11.865 20.1445H19.365C19.5639 20.1445 19.7547 20.2235 19.8953 20.3642C20.036 20.5049 20.115 20.6956 20.115 20.8945C20.115 21.0934 20.036 21.2842 19.8953 21.4249C19.7547 21.5655 19.5639 21.6445 19.365 21.6445H11.865C11.6661 21.6445 11.4753 21.5655 11.3347 21.4249C11.194 21.2842 11.115 21.0934 11.115 20.8945ZM11.115 23.8945C11.115 23.6956 11.194 23.5049 11.3347 23.3642C11.4753 23.2235 11.6661 23.1445 11.865 23.1445H13.365C13.5639 23.1445 13.7547 23.2235 13.8953 23.3642C14.036 23.5049 14.115 23.6956 14.115 23.8945C14.115 24.0934 14.036 24.2842 13.8953 24.4249C13.7547 24.5655 13.5639 24.6445 13.365 24.6445H11.865C11.6661 24.6445 11.4753 24.5655 11.3347 24.4249C11.194 24.2842 11.115 24.0934 11.115 23.8945ZM15.615 23.8945C15.615 23.6956 15.694 23.5049 15.8347 23.3642C15.9753 23.2235 16.1661 23.1445 16.365 23.1445H17.865C18.0639 23.1445 18.2547 23.2235 18.3953 23.3642C18.536 23.5049 18.615 23.6956 18.615 23.8945C18.615 24.0934 18.536 24.2842 18.3953 24.4249C18.2547 24.5655 18.0639 24.6445 17.865 24.6445H16.365C16.1661 24.6445 15.9753 24.5655 15.8347 24.4249C15.694 24.2842 15.615 24.0934 15.615 23.8945ZM20.115 23.8945C20.115 23.6956 20.194 23.5049 20.3347 23.3642C20.4753 23.2235 20.6661 23.1445 20.865 23.1445H22.365C22.5639 23.1445 22.7547 23.2235 22.8953 23.3642C23.036 23.5049 23.115 23.6956 23.115 23.8945C23.115 24.0934 23.036 24.2842 22.8953 24.4249C22.7547 24.5655 22.5639 24.6445 22.365 24.6445H20.865C20.6661 24.6445 20.4753 24.5655 20.3347 24.4249C20.194 24.2842 20.115 24.0934 20.115 23.8945ZM24.615 23.8945C24.615 23.6956 24.694 23.5049 24.8347 23.3642C24.9753 23.2235 25.1661 23.1445 25.365 23.1445H26.865C27.0639 23.1445 27.2547 23.2235 27.3953 23.3642C27.536 23.5049 27.615 23.6956 27.615 23.8945C27.615 24.0934 27.536 24.2842 27.3953 24.4249C27.2547 24.5655 27.0639 24.6445 26.865 24.6445H25.365C25.1661 24.6445 24.9753 24.5655 24.8347 24.4249C24.694 24.2842 24.615 24.0934 24.615 23.8945Z" fill="#111111"/>
</g>
<defs>
<clipPath id="clip0_1_593">
<rect width="24" height="24" fill="white" transform="translate(8.11499 8.14453)"/>
</clipPath>
</defs>
</svg>
