<svg width="40" height="40" viewBox="0 0 40 40" fill="none" xmlns="http://www.w3.org/2000/svg">
<circle cx="20" cy="20" r="20" fill="#E0F7FE"/>
<g clip-path="url(#clip0_1_2814)">
<path fill-rule="evenodd" clip-rule="evenodd" d="M19.6696 10.5293C14.3613 10.5293 10.0542 14.8364 10.0542 20.1447C10.0542 25.4529 14.3613 29.7601 19.6696 29.7601C24.9674 29.7601 29.285 25.4529 29.285 20.1447C29.285 14.8364 24.9674 10.5293 19.6696 10.5293ZM26.0207 14.9615C27.1679 16.359 27.8562 18.1424 27.8771 20.0717C27.6059 20.0195 24.8944 19.4668 22.1621 19.8109C22.0995 19.6754 22.0474 19.5294 21.9848 19.3834C21.8179 18.9871 21.6302 18.5804 21.4425 18.1945C24.4669 16.9639 25.8434 15.191 26.0207 14.9615ZM19.6696 11.9476C21.7554 11.9476 23.6638 12.7298 25.1134 14.0125C24.9674 14.2211 23.7264 15.8793 20.8063 16.9743C19.461 14.5027 17.9697 12.4795 17.7403 12.1666C18.3555 12.0206 19.0021 11.9476 19.6696 11.9476ZM16.1759 12.7194C16.3949 13.0114 17.855 15.045 19.2211 17.4645C15.3833 18.4865 11.994 18.4656 11.629 18.4656C12.1608 15.921 13.8816 13.804 16.1759 12.7194ZM11.4517 20.1551C11.4517 20.0717 11.4517 19.9883 11.4517 19.9048C11.8062 19.9152 15.7901 19.9674 19.8886 18.7368C20.1284 19.1957 20.3474 19.665 20.556 20.1343C20.4517 20.1655 20.337 20.1968 20.2327 20.2281C15.9986 21.5943 13.746 25.3278 13.5583 25.6407C12.2547 24.1911 11.4517 22.2617 11.4517 20.1551ZM19.6696 28.3626C17.7715 28.3626 16.0195 27.716 14.6324 26.6314C14.7785 26.329 16.4471 23.1169 21.0775 21.5004C21.0983 21.49 21.1088 21.49 21.1296 21.4796C22.2872 24.4726 22.7565 26.986 22.8817 27.7056C21.8909 28.1332 20.8063 28.3626 19.6696 28.3626ZM24.2479 26.9547C24.1644 26.4541 23.7264 24.0555 22.6522 21.1041C25.2282 20.6974 27.4808 21.3649 27.7624 21.4587C27.4078 23.7426 26.0937 25.7137 24.2479 26.9547Z" fill="#FA9191"/>
</g>
<defs>
<clipPath id="clip0_1_2814">
<rect width="19.2308" height="19.2308" fill="white" transform="translate(10.0542 10.5293)"/>
</clipPath>
</defs>
</svg>
