<svg width="36" height="36" viewBox="0 0 36 36" fill="none" xmlns="http://www.w3.org/2000/svg">
<circle cx="18" cy="18" r="18" fill="#E0F7FE"/>
<path d="M16.1198 18.5C17.3188 18.5 18.2032 17.6156 18.2032 16.4167C18.2032 15.2177 17.3188 14.3333 16.1198 14.3333C14.9209 14.3333 14.0365 15.2177 14.0365 16.4167C14.0365 17.6156 14.9198 18.5 16.1198 18.5Z" fill="black"/>
<path d="M26.8334 10.1667H10.1667C9.01775 10.1667 8.08337 11.0427 8.08337 12.1198V24.8802C8.08337 25.9573 9.01775 26.8333 10.1667 26.8333H26.8334C27.9823 26.8333 28.9167 25.9573 28.9167 24.8802V12.1198C28.9167 11.0427 27.9823 10.1667 26.8334 10.1667ZM26.8334 24.75L10.1667 24.7385V12.25L26.8334 12.2614V24.75Z" fill="black"/>
<path d="M20.5833 15.375H24.75V17.4583H20.5833V15.375ZM21.625 19.5417H24.75V21.625H21.625V19.5417ZM19.9896 22.1833C19.9896 20.7521 18.2438 19.2813 16.1198 19.2813C13.9958 19.2813 12.25 20.7521 12.25 22.1833V22.6667H19.9896V22.1833Z" fill="black"/>
</svg>
