<svg width="40" height="40" viewBox="0 0 40 40" fill="none" xmlns="http://www.w3.org/2000/svg">
<g clip-path="url(#clip0_1_2862)">
<path fill-rule="evenodd" clip-rule="evenodd" d="M20.0033 0.00542444C29.0206 0.00542444 36.6394 5.99948 39.1089 14.2266H33.3961C31.165 9.02991 26.0087 5.39046 20.0033 5.39046C12.096 5.39046 5.6602 11.6992 5.43645 19.566L5.32809 33.5244C2.05446 29.9647 0.0541382 25.2115 0.0541382 19.9895C0.0541382 8.95238 8.98562 0.00514221 20.0033 0.00514221V0.00542444ZM8.26059 19.663C8.52206 13.2792 13.9911 8.01178 20.0036 8.01178C26.0158 8.01178 30.2838 11.8517 31.5951 17.0411C34.2909 17.0411 37.0134 17.0684 39.7396 17.0684C39.8792 18.022 39.9524 18.9973 39.9524 19.9897C39.9524 31.0268 31.0209 39.974 20.0033 39.974C18.7817 39.974 17.5861 39.8635 16.4254 39.6529V34.1449C17.5701 34.4345 18.7688 34.5887 20.0033 34.5887C27.1999 34.5887 33.1772 29.3633 34.3624 22.4932H31.6981C30.5489 27.9067 25.7498 31.968 20.0033 31.968C17.5036 31.968 15.1833 31.1994 13.2643 29.8855C13.2643 32.8998 13.4025 35.769 13.4025 38.8527C11.5835 38.2141 9.88488 37.3189 8.35009 36.2105V34.1274L8.26031 19.6627L8.26059 19.663ZM20.0036 13.4165C23.6276 13.4165 26.5654 16.3596 26.5654 19.99C26.5654 23.6205 23.6276 26.5635 20.0036 26.5635C16.3795 26.5635 13.4417 23.6205 13.4417 19.99C13.4417 16.3596 16.3795 13.4165 20.0036 13.4165Z" fill="white"/>
<path d="M20.0035 23.5615C21.9723 23.5615 23.5684 21.9626 23.5684 19.9903C23.5684 18.018 21.9723 16.4191 20.0035 16.4191C18.0346 16.4191 16.4385 18.018 16.4385 19.9903C16.4385 21.9626 18.0346 23.5615 20.0035 23.5615Z" fill="#FDAE09"/>
</g>
<defs>
<clipPath id="clip0_1_2862">
<rect width="40" height="40" fill="white"/>
</clipPath>
</defs>
</svg>
