<svg width="48" height="48" viewBox="0 0 48 48" fill="none" xmlns="http://www.w3.org/2000/svg">
<rect width="48" height="48" rx="20" fill="#008AA7"/>
<path fill-rule="evenodd" clip-rule="evenodd" d="M16.8383 14.4005H20.0831C21.4367 14.4005 22.5215 15.5045 22.5215 16.859V20.1317C22.5215 21.4949 21.4367 22.5893 20.0831 22.5893H16.8383C15.4943 22.5893 14.3999 21.4949 14.3999 20.1317V16.859C14.3999 15.5045 15.4943 14.4005 16.8383 14.4005ZM16.8383 25.4114H20.0831C21.4367 25.4114 22.5215 26.5068 22.5215 27.87V31.1426C22.5215 32.4962 21.4367 33.6002 20.0831 33.6002H16.8383C15.4943 33.6002 14.3999 32.4962 14.3999 31.1426V27.87C14.3999 26.5068 15.4943 25.4114 16.8383 25.4114ZM31.1616 14.4005H27.9168C26.5632 14.4005 25.4784 15.5045 25.4784 16.859V20.1317C25.4784 21.4949 26.5632 22.5893 27.9168 22.5893H31.1616C32.5056 22.5893 33.6 21.4949 33.6 20.1317V16.859C33.6 15.5045 32.5056 14.4005 31.1616 14.4005ZM27.9168 25.4114H31.1616C32.5056 25.4114 33.6 26.5068 33.6 27.87V31.1426C33.6 32.4962 32.5056 33.6002 31.1616 33.6002H27.9168C26.5632 33.6002 25.4784 32.4962 25.4784 31.1426V27.87C25.4784 26.5068 26.5632 25.4114 27.9168 25.4114Z" fill="white"/>
</svg>
