<svg width="41" height="40" viewBox="0 0 41 40" fill="none" xmlns="http://www.w3.org/2000/svg">
<circle cx="20.115" cy="20" r="20" fill="#008AA7"/>
<g clip-path="url(#clip0_1_628)">
<path d="M31.3806 8.48674C31.311 8.31335 31.1772 8.17348 31.0071 8.09622C30.837 8.01896 30.6437 8.01027 30.4673 8.07194C30.2909 8.13362 30.1451 8.26091 30.0602 8.42735C29.9753 8.59379 29.9578 8.78655 30.0114 8.96554C31.1262 12.1695 28.9134 14.5623 27.2262 15.8439L26.5446 14.8671C26.3154 14.5395 25.803 14.2671 25.4046 14.2623L21.579 14.2791C21.1117 14.2933 20.6569 14.4334 20.2626 14.6847L8.98985 22.5891C8.72764 22.7737 8.54923 23.0545 8.49368 23.3703C8.43813 23.6861 8.50996 24.011 8.69345 24.2739L13.8162 31.6035C14.2002 32.1495 14.8134 32.0835 15.3606 31.7019L26.6334 23.7963C26.9574 23.5671 27.3318 23.0727 27.4638 22.6947L28.6614 18.9207C28.7934 18.5439 28.713 17.9691 28.4838 17.6415L28.0686 17.0463C30.3342 15.3099 32.6862 12.2415 31.3806 8.48674ZM26.1354 19.7163C25.9278 19.8617 25.6935 19.9647 25.446 20.0195C25.1985 20.0743 24.9426 20.0798 24.693 20.0357C24.4434 19.9915 24.2049 19.8987 23.9912 19.7623C23.7775 19.626 23.5927 19.4489 23.4474 19.2411C23.1534 18.8207 23.0381 18.3008 23.127 17.7955C23.2158 17.2902 23.5016 16.8408 23.9214 16.5459C24.2506 16.3153 24.6436 16.1933 25.0455 16.197C25.4474 16.2006 25.8381 16.3298 26.163 16.5663C25.8366 16.7631 25.6122 16.8783 25.5702 16.8963C25.4215 16.9673 25.3012 17.0866 25.2292 17.2348C25.1572 17.383 25.1376 17.5513 25.1737 17.7121C25.2098 17.8729 25.2995 18.0167 25.428 18.1198C25.5565 18.223 25.7163 18.2794 25.881 18.2799C25.9842 18.2799 26.0898 18.2559 26.1894 18.2091C26.4222 18.0987 26.6718 17.9679 26.9322 17.8131C26.9921 18.1732 26.9491 18.5429 26.8082 18.8796C26.6672 19.2163 26.434 19.5063 26.1354 19.7163Z" fill="white"/>
</g>
<defs>
<clipPath id="clip0_1_628">
<rect width="24" height="24" fill="white" transform="translate(8.11499 8)"/>
</clipPath>
</defs>
</svg>
