<svg width="48" height="48" viewBox="0 0 48 48" fill="none" xmlns="http://www.w3.org/2000/svg">
<rect width="48" height="48" rx="20" fill="#008AA7"/>
<path fill-rule="evenodd" clip-rule="evenodd" d="M33.6 23.8911L33.6 28.7288C33.6 31.1477 31.68 33.1205 29.3376 33.1205L18.6624 33.1205C16.3104 33.1205 14.4 31.1477 14.4 28.709L14.4 23.8812C14.4 21.4623 16.3104 19.4797 18.6528 19.4797L23.2608 19.4797L23.2608 25.6259L21.7248 24.0398C21.4368 23.7424 20.9664 23.7424 20.6784 24.0398C20.5344 24.1885 20.4672 24.3868 20.4672 24.585C20.4672 24.7734 20.5344 24.9717 20.6784 25.1204L23.472 28.0151C23.6064 28.1638 23.7984 28.2431 24 28.2431C24.192 28.2431 24.384 28.1638 24.5184 28.0151L27.312 25.1204C27.6 24.823 27.6 24.3372 27.312 24.0398C27.024 23.7424 26.5536 23.7424 26.2656 24.0398L24.7392 25.6259L24.7392 19.4797L29.328 19.4797C31.68 19.4797 33.6 21.4623 33.6 23.8911ZM24.0001 14.8805C24.4033 14.8805 24.7393 15.2215 24.7393 15.6307L24.7393 19.4794L23.2609 19.4794L23.2609 15.6307C23.2609 15.2215 23.5873 14.8805 24.0001 14.8805Z" fill="white"/>
</svg>
