<svg width="10" height="12" viewBox="0 0 10 12" fill="none" xmlns="http://www.w3.org/2000/svg">
<path d="M9.1987 7.02581C9.14746 7.07841 8.95396 7.30334 8.77371 7.48837C7.71697 8.65202 4.96026 10.5567 3.5174 11.138C3.29827 11.2315 2.74428 11.4292 2.44829 11.4419C2.16466 11.4419 1.89429 11.3766 1.63629 11.2442C1.31468 11.0591 1.05668 10.768 0.915307 10.4243C0.8243 10.1857 0.68293 9.47193 0.68293 9.45923C0.54156 8.67832 0.463806 7.40946 0.463806 6.00727C0.463806 4.6713 0.54156 3.45414 0.657306 2.66144C0.67056 2.64874 0.81193 1.76172 0.966553 1.45788C1.25018 0.902809 1.80417 0.558158 2.39704 0.558158H2.44829C2.8344 0.571763 3.6464 0.916414 3.6464 0.929112C5.0115 1.51139 7.7046 3.32262 8.78696 4.52618C8.78696 4.52618 9.09179 4.83546 9.22433 5.02865C9.43108 5.30618 9.53357 5.64993 9.53357 5.99367C9.53357 6.37732 9.41783 6.73467 9.1987 7.02581Z" fill="#008AA7"/>
</svg>
