<svg width="36" height="36" viewBox="0 0 36 36" fill="none" xmlns="http://www.w3.org/2000/svg">
<circle cx="18" cy="18" r="18" fill="#E0F7FE"/>
<path d="M24.75 17.4583C24.75 16.4594 24.0417 15.624 23.1032 15.4229C23.4782 14.7969 23.7084 14.0729 23.7084 13.2917C23.7084 10.9937 21.8396 9.125 19.5417 9.125C17.9615 9.125 16.6032 10.0177 15.8959 11.3167C15.1886 10.0177 13.8302 9.125 12.25 9.125C9.95212 9.125 8.08337 10.9937 8.08337 13.2917C8.08337 14.2312 8.40837 15.0906 8.93442 15.7875C8.67149 15.9798 8.45746 16.2312 8.30962 16.5214C8.16179 16.8117 8.08428 17.1326 8.08337 17.4583V25.7917C8.08337 26.9406 9.01775 27.875 10.1667 27.875H22.6667C23.8157 27.875 24.75 26.9406 24.75 25.7917V23.0437L28.9167 25.1271V17.8354L24.75 19.9187V17.4583ZM19.5417 11.2083C20.6907 11.2083 21.625 12.1427 21.625 13.2917C21.625 14.4406 20.6907 15.375 19.5417 15.375C18.3927 15.375 17.4584 14.4406 17.4584 13.2917C17.4584 12.1427 18.3927 11.2083 19.5417 11.2083ZM12.25 11.2083C13.399 11.2083 14.3334 12.1427 14.3334 13.2917C14.3334 14.4406 13.399 15.375 12.25 15.375C11.1011 15.375 10.1667 14.4406 10.1667 13.2917C10.1667 12.1427 11.1011 11.2083 12.25 11.2083ZM10.1667 25.7917V17.4583H22.6667L22.6688 25.7917H10.1667Z" fill="black"/>
</svg>
