<svg width="41" height="40" viewBox="0 0 41 40" fill="none" xmlns="http://www.w3.org/2000/svg">
<circle cx="20.115" cy="20" r="20" fill="#E0F7FE"/>
<path d="M11.115 28.586L14.701 25H26.115C26.6454 25 27.1541 24.7893 27.5292 24.4142C27.9043 24.0391 28.115 23.5304 28.115 23V14C28.115 13.4696 27.9043 12.9609 27.5292 12.5858C27.1541 12.2107 26.6454 12 26.115 12H13.115C12.5846 12 12.0758 12.2107 11.7008 12.5858C11.3257 12.9609 11.115 13.4696 11.115 14V28.586ZM11.115 30H10.115V14C10.115 13.2044 10.4311 12.4413 10.9937 11.8787C11.5563 11.3161 12.3193 11 13.115 11H26.115C26.9106 11 27.6737 11.3161 28.2363 11.8787C28.7989 12.4413 29.115 13.2044 29.115 14V23C29.115 23.7956 28.7989 24.5587 28.2363 25.1213C27.6737 25.6839 26.9106 26 26.115 26H15.115L11.115 30ZM14.115 15H25.115V16H14.115V15ZM14.115 18H25.115V19H14.115V18ZM14.115 21H22.115V22H14.115V21Z" fill="black"/>
</svg>
