<svg width="36" height="36" viewBox="0 0 36 36" fill="none" xmlns="http://www.w3.org/2000/svg">
<circle cx="18" cy="18" r="18" fill="#E0F7FE"/>
<path d="M17.7323 17.126L17.5 17.3552L17.2667 17.126C16.8331 16.698 16.2483 16.458 15.639 16.458C15.0298 16.458 14.445 16.698 14.0114 17.126C13.7963 17.3331 13.6251 17.5814 13.5081 17.8561C13.3912 18.1309 13.3309 18.4264 13.3309 18.725C13.3309 19.0236 13.3912 19.3191 13.5081 19.5939C13.6251 19.8686 13.7963 20.1169 14.0114 20.324L17.5 23.75L20.9885 20.324C21.2037 20.1169 21.3749 19.8686 21.4918 19.5939C21.6088 19.3191 21.669 19.0236 21.669 18.725C21.669 18.4264 21.6088 18.1309 21.4918 17.8561C21.3749 17.5814 21.2037 17.3331 20.9885 17.126C20.5548 16.6979 19.9698 16.4579 19.3604 16.4579C18.751 16.4579 18.166 16.6979 17.7323 17.126Z" fill="black"/>
<path d="M27.6114 16.7635L18.2364 7.38855C18.1397 7.29173 18.0249 7.21492 17.8986 7.16251C17.7722 7.1101 17.6367 7.08313 17.4999 7.08313C17.3631 7.08313 17.2277 7.1101 17.1013 7.16251C16.9749 7.21492 16.8601 7.29173 16.7635 7.38855L7.38848 16.7635C7.24285 16.9092 7.14367 17.0948 7.1035 17.2968C7.06333 17.4989 7.08395 17.7083 7.16278 17.8986C7.2416 18.0889 7.37508 18.2516 7.54634 18.366C7.7176 18.4805 7.91895 18.5416 8.12494 18.5417H9.16661V25.8333C9.16661 26.9823 10.101 27.9167 11.2499 27.9167H23.7499C24.8989 27.9167 25.8333 26.9823 25.8333 25.8333V18.5417H26.8749C27.0809 18.5416 27.2823 18.4805 27.4535 18.366C27.6248 18.2516 27.7583 18.0889 27.8371 17.8986C27.9159 17.7083 27.9366 17.4989 27.8964 17.2968C27.8562 17.0948 27.757 16.9092 27.6114 16.7635ZM23.751 25.8333H11.2499V15.849L17.4999 9.59896L23.7499 15.849V20.625L23.751 25.8333Z" fill="black"/>
</svg>
