<svg width="40" height="40" viewBox="0 0 40 40" fill="none" xmlns="http://www.w3.org/2000/svg">
<circle cx="20" cy="20" r="20" fill="#E0F7FE"/>
<g clip-path="url(#clip0_1_2826)">
<path d="M20.0153 10.5254C14.7047 10.5254 10.3999 14.8302 10.3999 20.1408C10.3999 25.4514 14.7047 29.7562 20.0153 29.7562C25.3259 29.7562 29.6307 25.4514 29.6307 20.1408C29.6307 14.8308 25.3259 10.526 20.0153 10.5254ZM24.425 24.3931C24.2525 24.6765 23.8831 24.7651 23.601 24.5925C21.3433 23.2127 18.501 22.9011 15.1541 23.6654C14.8313 23.7396 14.5098 23.5375 14.4363 23.2147C14.3622 22.8919 14.5636 22.5704 14.8871 22.4969C18.5495 21.6603 21.6917 22.0205 24.2262 23.569C24.5084 23.7429 24.5983 24.1109 24.425 24.3931ZM25.6015 21.7758C25.3843 22.1288 24.9224 22.239 24.57 22.0225C21.9863 20.4341 18.0456 19.9741 14.9888 20.9019C14.5925 21.0219 14.1739 20.7982 14.0532 20.4026C13.9337 20.0063 14.1575 19.5883 14.5531 19.4676C18.045 18.408 22.3865 18.9211 25.3541 20.7451C25.7071 20.9622 25.8186 21.4235 25.6015 21.7758ZM25.7025 19.049C22.603 17.2086 17.4906 17.0393 14.5315 17.9369C14.0564 18.0812 13.5539 17.8129 13.4102 17.3378C13.2665 16.8628 13.5342 16.3602 14.0099 16.2159C17.4066 15.1851 23.0524 15.3839 26.6204 17.5019C27.0475 17.7558 27.188 18.3076 26.9347 18.7341C26.6821 19.1618 26.129 19.3029 25.7025 19.049Z" fill="#15CF74"/>
</g>
<defs>
<clipPath id="clip0_1_2826">
<rect width="19.2308" height="19.2308" fill="white" transform="translate(10.3999 10.5254)"/>
</clipPath>
</defs>
</svg>
