<svg width="22" height="20" viewBox="0 0 22 20" fill="none" xmlns="http://www.w3.org/2000/svg">
<path d="M20.2939 5.68389V8.63056H13.0311C12.2814 8.63056 11.6616 9.25028 11.6616 10V13.0467C11.6616 13.7964 12.2814 14.4161 13.0311 14.4161H20.2939V17.3628C20.2939 17.7383 20.0077 18.0244 19.6322 18.0244H2.36774C1.99222 18.0244 1.70607 17.7383 1.70607 17.3628V4.81086C1.98347 4.94478 2.29402 5.02222 2.62163 5.02222H2.62172C6.52281 5.01876 10.7301 5.02002 14.5709 5.02117C16.3602 5.02171 18.07 5.02222 19.6322 5.02222C20.0077 5.02222 20.2939 5.30837 20.2939 5.68389ZM13.0309 9.84611H13.0311H20.2939V13.2006H13.0311C12.9803 13.2006 12.9431 13.1832 12.9188 13.1589C12.8945 13.1347 12.8772 13.0975 12.8772 13.0467V10C12.8772 9.94917 12.8945 9.91189 12.9188 9.88758C12.9431 9.8633 12.9802 9.84601 13.0309 9.84611ZM2.62163 0.760001C1.44995 0.760001 0.490515 1.71943 0.490515 2.89111V17.3628C0.490515 18.3938 1.33671 19.24 2.36774 19.24H19.6322C20.6632 19.24 21.5094 18.3938 21.5094 17.3628V5.68389C21.5094 4.65286 20.6632 3.80667 19.6322 3.80667H18.4627V1.36778C18.4627 1.04668 18.1761 0.760031 17.855 0.760001H2.62163ZM2.62163 1.97556H17.2472V3.80667H2.62163C2.10545 3.80667 1.70607 3.40729 1.70607 2.89111C1.70607 2.37494 2.10545 1.97556 2.62163 1.97556ZM15.57 10.4078C14.9539 10.4078 14.4544 10.9072 14.4544 11.5233C14.4544 12.1395 14.9539 12.6389 15.57 12.6389C16.1861 12.6389 16.6855 12.1395 16.6855 11.5233C16.6855 10.9072 16.1861 10.4078 15.57 10.4078Z" fill="black" stroke="black" stroke-width="0.2"/>
</svg>
